<svg width="50" height="50" viewBox="0 0 62 61" fill="none" xmlns="http://www.w3.org/2000/svg">
<path d="M53.1366 11.7679L49.7308 8.36209C48.7904 7.37084 47.1383 7.37084 46.147 8.36209L23.3737 31.1354L30.3633 38.125L53.1366 15.3517C54.1279 14.3604 54.1279 12.7083 53.1366 11.7679ZM18.2904 35.5833C16.2681 35.5833 14.3286 36.3867 12.8987 37.8167C11.4687 39.2466 10.6654 41.1861 10.6654 43.2083C10.6654 46.5379 7.71703 48.2917 5.58203 48.2917C7.92036 51.3925 11.9362 53.375 15.7487 53.375C18.4451 53.375 21.031 52.3039 22.9376 50.3973C24.8442 48.4906 25.9154 45.9047 25.9154 43.2083C25.9154 41.1861 25.112 39.2466 23.6821 37.8167C22.2521 36.3867 20.3126 35.5833 18.2904 35.5833Z" fill="#2091F9"/>
</svg>
