<?xml version="1.0" encoding="utf-8"?>
<!-- Generator: Adobe Illustrator 14.0.0, SVG Export Plug-In . SVG Version: 6.00 Build 43363)  -->
<!DOCTYPE svg PUBLIC "-//W3C//DTD SVG 1.1//EN" "http://www.w3.org/Graphics/SVG/1.1/DTD/svg11.dtd">
<svg version="1.1" id="gillette" xmlns="http://www.w3.org/2000/svg" xmlns:xlink="http://www.w3.org/1999/xlink" x="0px" y="0px"
	 width="400px" height="300px" viewBox="0 0 400 300" enable-background="new 0 0 400 300" xml:space="preserve">
<path id="gillette_1_" fill="#efefef" d="M50.859,142.265l-4.568,19.19h15.651c-1.515,10.297-26.887,14.734-23.016-10.197
	c2.722-17.438,24.552-26.84,29.378-13.341l26.968-6.757c-3.885-16.783-18.737-25.086-35.065-25.086
	c-22.468-0.009-47.731,15.706-51.048,46.635c-2.785,25.945,16.662,40.218,39.239,39.846c16.055-0.276,28.749-6.119,34.937-10.51
	l9.396-39.78H50.859z M99.916,133.259l-13.563,57.487h28.003l13.558-57.487H99.916z M140.688,100.436l-21.304,90.311h28.012
	l21.286-90.311H140.688z M133.803,108.712h-28.05l-4.822,21.023l29.852-7.431L133.803,108.712z M363.05,129.435
	c-11.379,0-20.953,5.168-27.546,13.176c1.047-4.214,2.247-9.057,2.259-9.057h-11.624l5.903-24.829h-27.978l-5.934,24.864
	l-6.332,0.006l5.957-24.87h-27.987l-5.853,24.788l-8.957,0.05l-4.203,15.205c-3.104-13.217-15.543-19.434-27.26-19.434
	c-16.612,0-29.313,10.924-34.599,25.652l12.859-54.55h-28l-21.283,90.311h27.994l6.087-25.816
	c-1.073,10.275,2.827,28.818,28.032,28.818c12.649,0,28.85-8.221,32.715-19.625l-21.873-3.822c-2.455,3.175-6.137,5.068-9.707,5.068
	c-6.006,0-7.711-5.134-6.496-9.744l40.684-0.049c0.381-1.389,1.262-2.896,1.572-7.904c0.098-1.524,0.049-2.924-0.029-4.322h7.813
	l-8.872,37.441h27.977l8.878-37.441h6.206l-8.791,37.441h27.996l8.895-37.441h7.582c-0.024,0.07-0.04,0.111-0.04,0.111
	c-1.357,3.345-2.334,6.908-2.842,10.611l-0.004,0.016c-1.409,10.041,1.939,29.783,27.937,29.783
	c12.646,0,28.847-8.227,32.717-19.629l-21.885-3.834c-2.446,3.185-6.139,5.073-9.701,5.073c-6.012,0-7.724-5.126-6.498-9.747
	l-0.016-0.015l40.69,0.015c0.337-1.388,1.217-2.947,1.532-7.956C392.359,138.373,377.164,129.435,363.05,129.435 M227.8,154.188
	l-15.479-0.104C214.681,146.059,229.024,144.241,227.8,154.188 M367.386,154.275l-15.483-0.029
	C354.271,146.222,368.602,144.335,367.386,154.275"/>
</svg>
